<svg style="background-color:#64727D" viewBox="0 0 19440 2835" xmlns="http://www.w3.org/2000/svg">
<rect fill="#2D3436" height="2835" width="19440" x="0" y="0"/>
<marker fill="#64727D" id="arrowhead" markerHeight="4" markerWidth="6.47213595499958" orient="auto" refX="0" refY="2">
<polygon points="0 0, 6.47213595499958, 2, 0 4"/>
</marker>
<line marker-end="url(#arrowhead)" stroke="#64727D" stroke-width="30" x1="7743.200536064373" x2="7743.200536064373" y1="697.5" y2="1417.5"/>
<polyline fill="none" points="1080 1777.5,1080 2160,18360 2160,18360 1777.5" stroke="#64727D" stroke-width="30"/>
<text fill="#64727D" font-size="360px" stroke="#64727D" text-anchor="middle" x="7743.200536064373" y="517.5">
You Are Here
</text>
<text fill="#64727D" font-size="360px" stroke="#64727D" text-anchor="middle" x="1080" y="2520">
0
</text>
<line stroke="#64727D" stroke-width="30" x1="1867.1637631346443" x2="1867.1637631346443" y1="2160" y2="1777.5"/>
<text fill="#64727D" font-size="360px" stroke="#64727D" text-anchor="middle" x="1867.1637631346443" y="2520">
1
</text>
<line stroke="#64727D" stroke-width="30" x1="2618.82452445913" x2="2618.82452445913" y1="2160" y2="1777.5"/>
<text fill="#64727D" font-size="360px" stroke="#64727D" text-anchor="middle" x="2618.82452445913" y="2520">
2
</text>
<line stroke="#64727D" stroke-width="30" x1="3336.5835557755468" x2="3336.5835557755468" y1="2160" y2="1777.5"/>
<text fill="#64727D" font-size="360px" stroke="#64727D" text-anchor="middle" x="3336.5835557755468" y="2520">
3
</text>
<line stroke="#64727D" stroke-width="30" x1="4021.969907629933" x2="4021.969907629933" y1="2160" y2="1777.5"/>
<text fill="#64727D" font-size="360px" stroke="#64727D" text-anchor="middle" x="4021.969907629933" y="2520">
4
</text>
<line stroke="#64727D" stroke-width="30" x1="4676.4436666667325" x2="4676.4436666667325" y1="2160" y2="1777.5"/>
<text fill="#64727D" font-size="360px" stroke="#64727D" text-anchor="middle" x="4676.4436666667325" y="2520">
5
</text>
<line stroke="#64727D" stroke-width="30" x1="5301.399066068614" x2="5301.399066068614" y1="2160" y2="1777.5"/>
<text fill="#64727D" font-size="360px" stroke="#64727D" text-anchor="middle" x="5301.399066068614" y="2520">
6
</text>
<line stroke="#64727D" stroke-width="30" x1="5898.167455707905" x2="5898.167455707905" y1="2160" y2="1777.5"/>
<text fill="#64727D" font-size="360px" stroke="#64727D" text-anchor="middle" x="5898.167455707905" y="2520">
7
</text>
<line stroke="#64727D" stroke-width="30" x1="6468.020138336955" x2="6468.020138336955" y1="2160" y2="1777.5"/>
<text fill="#64727D" font-size="360px" stroke="#64727D" text-anchor="middle" x="6468.020138336955" y="2520">
8
</text>
<line stroke="#64727D" stroke-width="30" x1="7012.171077859422" x2="7012.171077859422" y1="2160" y2="1777.5"/>
<text fill="#64727D" font-size="360px" stroke="#64727D" text-anchor="middle" x="7012.171077859422" y="2520">
9
</text>
<line stroke="#64727D" stroke-width="30" x1="7531.7794854519" x2="7531.7794854519" y1="2160" y2="1777.5"/>
<text fill="#64727D" font-size="360px" stroke="#64727D" text-anchor="middle" x="7531.7794854519" y="2520">
10
</text>
<line stroke="#64727D" stroke-width="30" x1="8027.952289045196" x2="8027.952289045196" y1="2160" y2="1777.5"/>
<text fill="#64727D" font-size="360px" stroke="#64727D" text-anchor="middle" x="8027.952289045196" y="2520">
11
</text>
<line stroke="#64727D" stroke-width="30" x1="8501.74649142599" x2="8501.74649142599" y1="2160" y2="1777.5"/>
<text fill="#64727D" font-size="360px" stroke="#64727D" text-anchor="middle" x="8501.74649142599" y="2520">
12
</text>
<line stroke="#64727D" stroke-width="30" x1="8954.171421982353" x2="8954.171421982353" y1="2160" y2="1777.5"/>
<text fill="#64727D" font-size="360px" stroke="#64727D" text-anchor="middle" x="8954.171421982353" y="2520">
13
</text>
<line stroke="#64727D" stroke-width="30" x1="9798.725222320329" x2="9798.725222320329" y1="2160" y2="1777.5"/>
<text fill="#64727D" font-size="360px" stroke="#64727D" text-anchor="middle" x="9798.725222320329" y="2520">
15
</text>
<line stroke="#64727D" stroke-width="30" x1="10568.814174600388" x2="10568.814174600388" y1="2160" y2="1777.5"/>
<text fill="#64727D" font-size="360px" stroke="#64727D" text-anchor="middle" x="10568.814174600388" y="2520">
17
</text>
<line stroke="#64727D" stroke-width="30" x1="11271.00389204227" x2="11271.00389204227" y1="2160" y2="1777.5"/>
<text fill="#64727D" font-size="360px" stroke="#64727D" text-anchor="middle" x="11271.00389204227" y="2520">
19
</text>
<line stroke="#64727D" stroke-width="30" x1="11911.281093554191" x2="11911.281093554191" y1="2160" y2="1777.5"/>
<text fill="#64727D" font-size="360px" stroke="#64727D" text-anchor="middle" x="11911.281093554191" y="2520">
21
</text>
<line stroke="#64727D" stroke-width="30" x1="12495.104645214014" x2="12495.104645214014" y1="2160" y2="1777.5"/>
<text fill="#64727D" font-size="360px" stroke="#64727D" text-anchor="middle" x="12495.104645214014" y="2520">
23
</text>
<line stroke="#64727D" stroke-width="30" x1="13027.452101390538" x2="13027.452101390538" y1="2160" y2="1777.5"/>
<text fill="#64727D" font-size="360px" stroke="#64727D" text-anchor="middle" x="13027.452101390538" y="2520">
25
</text>
<line stroke="#64727D" stroke-width="30" x1="13512.862142304304" x2="13512.862142304304" y1="2160" y2="1777.5"/>
<text fill="#64727D" font-size="360px" stroke="#64727D" text-anchor="middle" x="13512.862142304304" y="2520">
27
</text>
<line stroke="#64727D" stroke-width="30" x1="14161.921847376912" x2="14161.921847376912" y1="2160" y2="1777.5"/>
<text fill="#64727D" font-size="360px" stroke="#64727D" text-anchor="middle" x="14161.921847376912" y="2520">
30
</text>
<line stroke="#64727D" stroke-width="30" x1="14727.060493525832" x2="14727.060493525832" y1="2160" y2="1777.5"/>
<text fill="#64727D" font-size="360px" stroke="#64727D" text-anchor="middle" x="14727.060493525832" y="2520">
33
</text>
<line stroke="#64727D" stroke-width="30" x1="15219.128768408653" x2="15219.128768408653" y1="2160" y2="1777.5"/>
<text fill="#64727D" font-size="360px" stroke="#64727D" text-anchor="middle" x="15219.128768408653" y="2520">
36
</text>
<line stroke="#64727D" stroke-width="30" x1="15777.705102700043" x2="15777.705102700043" y1="2160" y2="1777.5"/>
<text fill="#64727D" font-size="360px" stroke="#64727D" text-anchor="middle" x="15777.705102700043" y="2520">
40
</text>
<line stroke="#64727D" stroke-width="30" x1="16242.123779389241" x2="16242.123779389241" y1="2160" y2="1777.5"/>
<text fill="#64727D" font-size="360px" stroke="#64727D" text-anchor="middle" x="16242.123779389241" y="2520">
44
</text>
<line stroke="#64727D" stroke-width="30" x1="16714.15623183238" x2="16714.15623183238" y1="2160" y2="1777.5"/>
<text fill="#64727D" font-size="360px" stroke="#64727D" text-anchor="middle" x="16714.15623183238" y="2520">
49
</text>
<line stroke="#64727D" stroke-width="30" x1="17216.22639921591" x2="17216.22639921591" y1="2160" y2="1777.5"/>
<text fill="#64727D" font-size="360px" stroke="#64727D" text-anchor="middle" x="17216.22639921591" y="2520">
56
</text>
<line stroke="#64727D" stroke-width="30" x1="17663.72707741337" x2="17663.72707741337" y1="2160" y2="1777.5"/>
<text fill="#64727D" font-size="360px" stroke="#64727D" text-anchor="middle" x="17663.72707741337" y="2520">
65
</text>
<text fill="#64727D" font-size="360px" stroke="#64727D" text-anchor="middle" x="18360" y="2520">
100
</text>
</svg>